<svg width="25" height="25" viewBox="0 0 242 242" fill="none" xmlns="http://www.w3.org/2000/svg">
<path d="M201.434 51.788H104.634C102.962 51.788 101.609 50.4335 101.609 48.763V32.6088C101.609 30.9383 102.962 29.5838 104.634 29.5838H201.434C202.236 29.5838 203.004 29.9025 203.573 30.4697C204.14 31.0369 204.459 31.8066 204.459 32.6088V48.763C204.459 49.5652 204.14 50.3349 203.573 50.9021C203.004 51.4693 202.236 51.788 201.434 51.788ZM201.434 108.233H104.634C102.962 108.233 101.609 106.878 101.609 105.208V89.0847C101.609 87.4142 102.962 86.0597 104.634 86.0597H201.434C202.236 86.0597 203.004 86.3784 203.573 86.9456C204.14 87.5128 204.459 88.2825 204.459 89.0847V105.208C204.459 106.01 204.14 106.78 203.573 107.347C203.004 107.914 202.236 108.233 201.434 108.233ZM201.434 164.014H56.2338C54.562 164.014 53.2088 162.659 53.2088 160.989V144.835C53.2088 143.164 54.562 141.81 56.2338 141.81H201.434C202.236 141.81 203.004 142.128 203.573 142.695C204.14 143.263 204.459 144.032 204.459 144.835V160.989C204.459 161.791 204.14 162.561 203.573 163.128C203.004 163.695 202.236 164.014 201.434 164.014ZM40.5626 103.967C38.8921 103.967 37.5376 102.612 37.5376 100.942V36.8739C37.5443 35.7962 38.1237 34.8036 39.0582 34.2675C39.9927 33.7314 41.1419 33.7327 42.0751 34.2716L97.583 66.3068C98.5161 66.8483 99.0901 67.845 99.0901 68.9226C99.0901 70.0016 98.5161 70.9983 97.583 71.5398L42.0751 103.575C41.6146 103.836 41.0933 103.972 40.5626 103.968V103.967Z" fill="#868686"/>
</svg>
