<svg width="33.23" height="20.97" viewBox="0 0 189 119" fill="none" xmlns="http://www.w3.org/2000/svg">
<path fill-rule="evenodd" clip-rule="evenodd" d="M181.257 89.7868C185.282 89.7868 188.553 93.0554 188.553 97.0823V111.672C188.553 115.7 185.282 118.968 181.257 118.968H51.0676C47.0399 118.968 43.772 115.7 43.772 111.672V97.0823C43.772 93.0557 47.0396 89.7868 51.0676 89.7868H181.257ZM21.8864 89.7868C25.9112 89.7868 29.1809 93.0554 29.1809 97.0823V111.672C29.1809 115.7 25.9112 118.968 21.8864 118.968H7.29557C3.26891 118.968 0 115.7 0 111.672V97.0823C0 93.0557 3.26864 89.7868 7.29557 89.7868H21.8864ZM181.257 44.892C185.282 44.892 188.553 48.1607 188.553 52.1876V66.7784C188.553 70.8051 185.282 74.0729 181.257 74.0729H51.0676C47.0399 74.0729 43.772 70.8054 43.772 66.7784V52.1876C43.772 48.1609 47.0396 44.892 51.0676 44.892H181.257ZM21.8864 44.892C25.9112 44.892 29.1809 48.1607 29.1809 52.1876V66.7784C29.1809 70.8051 25.9112 74.0729 21.8864 74.0729H7.29557C3.26891 74.0729 0 70.8054 0 66.7784V52.1876C0 48.1609 3.26864 44.892 7.29557 44.892H21.8864ZM21.8864 0C25.9112 0 29.1809 3.26755 29.1809 7.29448V21.8853C29.1809 25.912 25.9112 29.1809 21.8864 29.1809H7.29557C3.26891 29.1809 0 25.9123 0 21.8853V7.29448C0 3.26782 3.26864 0 7.29557 0H21.8864ZM181.257 0C185.282 0 188.553 3.26755 188.553 7.29448V21.8853C188.553 25.912 185.282 29.1809 181.257 29.1809H51.0676C47.0399 29.1809 43.772 25.9123 43.772 21.8853V7.29448C43.772 3.26782 47.0396 0 51.0676 0H181.257Z" fill="#0C0C0C"/>
</svg>
